HIERARCHY
ROOT Bone
{
	OFFSET 0.000000 0.000000 0.000000
	CHANNELS 6 Xposition Yposition Zposition Zrotation Yrotation Xrotation
	JOINT Bone.001
	{
		OFFSET 0.000000 0.000000 1.000000
		CHANNELS 3 Zrotation Yrotation Xrotation
		JOINT Bone.002
		{
			OFFSET 0.000000 0.000000 0.734388
			CHANNELS 3 Zrotation Yrotation Xrotation
			JOINT Bone.005
			{
				OFFSET 0.000000 0.000000 0.827556
				CHANNELS 3 Zrotation Yrotation Xrotation
				JOINT Bone.006
				{
					OFFSET 0.000000 0.000000 0.869060
					CHANNELS 3 Zrotation Yrotation Xrotation
					JOINT Bone.011
					{
						OFFSET 0.563227 -0.018866 0.267704
						CHANNELS 3 Zrotation Yrotation Xrotation
						JOINT Bone.012
						{
							OFFSET 0.609516 0.008721 -0.056230
							CHANNELS 3 Zrotation Yrotation Xrotation
							End Site
							{
								OFFSET 0.387940 0.150738 0.059537
							}
						}
					}
				}
				JOINT Bone.008
				{
					OFFSET 0.000000 0.000000 0.869060
					CHANNELS 3 Zrotation Yrotation Xrotation
					JOINT Bone.015
					{
						OFFSET -0.258072 0.616539 0.153479
						CHANNELS 3 Zrotation Yrotation Xrotation
						JOINT Bone.016
						{
							OFFSET -0.130962 0.588591 0.015681
							CHANNELS 3 Zrotation Yrotation Xrotation
							End Site
							{
								OFFSET -0.135573 0.525406 0.005227
							}
						}
					}
				}
				JOINT Bone.010
				{
					OFFSET 0.000000 0.000000 0.869060
					CHANNELS 3 Zrotation Yrotation Xrotation
					JOINT Bone.013
					{
						OFFSET -0.583533 -0.099563 0.160616
						CHANNELS 3 Zrotation Yrotation Xrotation
						JOINT Bone.014
						{
							OFFSET -0.629268 -0.112959 -0.010203
							CHANNELS 3 Zrotation Yrotation Xrotation
							End Site
							{
								OFFSET -0.393003 -0.112641 -0.034009
							}
						}
					}
				}
			}
		}
	}
}
MOTION
Frames: 14
Frame Time: 0.041667
1.872553 0.000000 0.000000 0.000000 10.892510 0.000000 0.857651 -40.655564 -0.259393 -0.000005 50.547126 -0.000011 3.230828 -48.614148 -5.992587 0.000000 0.000001 0.000000 -55.399897 -33.728683 15.029992 -0.000003 0.000003 -0.000000 -0.000002 0.000001 0.000003 -0.000001 0.000002 0.000003 -0.000001 -0.000002 0.000001 0.000000 0.000002 0.000000 14.670276 62.137229 7.654761 0.000005 0.000001 -0.000001 
1.829835 0.000000 0.000000 0.000000 10.893578 0.000000 0.935089 -40.784142 -0.284072 -0.000005 55.879403 -0.000010 3.230828 -48.614148 -5.992589 -0.000000 0.000004 0.000000 -53.969833 -33.225933 14.298777 0.000003 -0.000002 0.000002 -0.000001 0.000002 -0.000001 -0.000002 0.000002 -0.000001 0.000000 -0.000001 0.000002 -0.000000 0.000002 -0.000000 14.958615 60.703730 6.558769 0.000002 0.000003 -0.000001 
1.782060 0.000000 0.000000 0.000000 10.894641 0.000000 1.014026 -40.904647 -0.309332 -0.000005 60.665296 -0.000008 3.230828 -48.614145 -5.992588 0.000000 0.000003 0.000000 -52.378542 -32.641891 13.498520 0.000001 -0.000007 0.000001 -0.000000 0.000007 -0.000001 0.000001 0.000002 -0.000001 0.000001 0.000003 -0.000000 -0.000000 0.000003 0.000000 15.252857 59.123436 5.407110 0.000002 0.000007 -0.000001 
1.729631 0.000000 0.000000 0.000000 10.895695 0.000000 1.094202 -41.017328 -0.335083 -0.000003 64.887583 -0.000005 3.230828 -48.614141 -5.992588 -0.000000 0.000003 -0.000000 -50.643045 -31.975015 12.642634 0.000001 0.000002 0.000001 0.000003 -0.000000 0.000001 0.000001 0.000002 -0.000001 -0.000001 0.000002 0.000001 0.000000 0.000001 0.000000 15.560740 57.405855 4.230160 0.000004 0.000004 -0.000001 
1.672955 0.000000 0.000000 0.000000 10.896746 0.000000 1.175354 -41.122435 -0.361232 0.000000 68.535395 0.000000 3.230828 -48.614148 -5.992587 0.000000 -0.000002 -0.000000 -48.780600 -31.224295 11.744831 0.000003 -0.000000 0.000001 -0.000002 -0.000006 0.000002 0.000003 -0.000004 -0.000001 0.000000 0.000000 0.000001 0.000000 0.000000 -0.000000 15.885900 55.561096 3.055097 0.000002 0.000000 -0.000002 
1.612435 0.000000 0.000000 0.000000 10.897786 0.000000 1.257219 -41.220239 -0.387684 0.014413 71.793553 0.018235 3.230828 -48.614148 -5.992587 0.000000 0.000001 -0.000000 -46.808666 -30.389503 10.818917 0.000002 -0.000002 0.000001 -0.000002 -0.000003 0.000001 0.000005 -0.000003 0.000002 0.000001 0.000000 0.000001 -0.000000 0.000001 0.000000 16.227939 53.599776 1.906222 0.000000 0.000002 -0.000002 
1.548475 0.000000 0.000000 0.000000 10.898814 0.000000 1.339535 -41.310999 -0.414346 0.068614 74.864365 0.083366 3.230828 -48.614148 -5.992587 -0.000000 -0.000002 -0.000000 -44.744627 -29.471341 9.878508 -0.000001 -0.000003 0.000002 0.000000 -0.000001 -0.000000 -0.000001 0.000002 0.000001 -0.000001 0.000001 -0.000001 -0.000001 0.000002 -0.000000 16.582972 51.532924 0.805469 0.000002 -0.000002 0.000002 
1.481481 0.000000 0.000000 0.000000 10.899828 0.000000 1.422036 -41.394973 -0.441123 0.188729 77.763760 0.220799 3.230828 -48.614148 -5.992588 0.000000 0.000004 -0.000000 -42.605658 -28.471621 8.936812 0.000002 -0.000000 0.000000 -0.000000 -0.000001 -0.000000 -0.000002 -0.000002 -0.000002 0.000002 0.000004 0.000001 0.000001 0.000000 -0.000001 16.944029 49.371917 -0.227028 0.000002 0.000000 0.000001 
1.411858 0.000000 0.000000 0.000000 10.900826 0.000000 1.504459 -41.472427 -0.467919 0.426909 80.505582 0.482057 3.230828 -48.614141 -5.992587 0.000000 0.000001 0.000000 -40.408536 -27.393447 8.006377 0.000003 -0.000002 -0.000001 -0.000001 -0.000001 0.000002 -0.000002 -0.000004 -0.000001 0.000001 -0.000000 -0.000000 -0.000000 0.000002 -0.000001 17.301513 47.128261 -1.172441 0.000002 -0.000001 0.000004 
1.340009 0.000000 0.000000 0.000000 10.901810 0.000000 1.586540 -41.543622 -0.494640 0.905559 83.101696 0.988979 3.230828 -48.614145 -5.992589 0.000000 0.000001 0.000000 -38.169457 -26.241223 7.098812 -0.000001 -0.000002 0.000000 -0.000001 -0.000001 0.000000 -0.000000 -0.000002 0.000001 -0.000001 -0.000002 -0.000000 -0.000001 -0.000000 -0.000000 17.643622 44.813592 -2.012776 -0.000003 -0.000000 -0.000003 
1.266340 0.000000 0.000000 0.000000 10.902771 0.000000 1.668015 -41.608826 -0.521190 1.997628 85.561834 2.114003 3.230828 -48.614141 -5.992588 0.000000 0.000003 0.000000 -35.903825 -25.020663 6.224596 0.000003 0.000001 0.000000 -0.000000 0.000001 0.000001 -0.000001 -0.000002 -0.000002 0.000001 -0.000000 -0.000000 -0.000001 0.000002 0.000000 17.956687 42.439421 -2.730414 0.000002 -0.000003 -0.000001 
1.191254 0.000000 0.000000 0.000000 10.903714 0.000000 1.748620 -41.668279 -0.547475 5.640057 87.890485 5.793591 3.230828 -48.614141 -5.992587 -0.000000 0.000001 0.000000 -33.626206 -23.738783 5.392895 -0.000003 -0.000003 0.000000 -0.000000 0.000000 0.000003 0.000001 -0.000000 0.000000 -0.000000 0.000004 0.000000 -0.000000 0.000001 0.000000 18.225436 40.017177 -3.307765 0.000002 -0.000002 -0.000001 
1.115157 0.000000 0.000000 0.000000 10.904636 0.000000 1.828092 -41.722265 -0.573401 -65.987448 90.291604 -65.794652 3.230829 -48.614148 -5.992586 -0.000000 0.000001 -0.000000 -31.350152 -22.403768 4.611424 -0.000001 -0.000001 0.000000 -0.000002 0.000002 0.000001 0.000003 -0.000002 -0.000000 0.000003 -0.000000 -0.000000 0.000001 0.000004 -0.000001 18.433163 37.558189 -3.726944 -0.000000 -0.000002 0.000002 
1.038453 0.000000 0.000000 0.000000 10.905532 0.000000 1.906169 -41.771040 -0.598875 -8.470346 92.249293 -8.231641 3.230828 -48.614145 -5.992587 0.000000 0.000001 -0.000000 -29.088242 -21.024844 3.886369 -0.000001 -0.000002 -0.000000 -0.000001 -0.000000 0.000001 0.000002 -0.000000 -0.000001 0.000001 0.000002 -0.000001 0.000000 0.000002 -0.000001 18.561941 35.073831 -3.969486 0.000002 -0.000001 0.000000 
